HIERARCHY
ROOT Hips
{
	OFFSET 0.00000 0.00000 0.00000
	CHANNELS 6 Xposition Yposition Zposition Zrotation Yrotation Xrotation 
	JOINT LHipJoint
	{
		OFFSET 0 0 0
		CHANNELS 3 Zrotation Yrotation Xrotation
		JOINT LeftHip
		{
			OFFSET 1.62329 -1.80800 0.67318
			CHANNELS 3 Zrotation Yrotation Xrotation
			JOINT LeftKnee
			{
				OFFSET 2.57139 -7.06484 0.00000
				CHANNELS 3 Zrotation Yrotation Xrotation
				JOINT LeftAnkle
				{
					OFFSET 2.52017 -6.92413 0.00000
					CHANNELS 3 Zrotation Yrotation Xrotation
					JOINT LeftToe
					{
						OFFSET 0.23295 -0.64001 2.10214
						CHANNELS 3 Zrotation Yrotation Xrotation
						End Site
						{
							OFFSET 0.00000 -0.00000 1.10139
						}
					}
				}
			}
		}
	}
	JOINT RHipJoint
	{
		OFFSET 0 0 0
		CHANNELS 3 Zrotation Yrotation Xrotation
		JOINT RightHip
		{
			OFFSET -1.48061 -1.80800 0.67318
			CHANNELS 3 Zrotation Yrotation Xrotation
			JOINT RightKnee
			{
				OFFSET -2.63258 -7.23296 0.00000
				CHANNELS 3 Zrotation Yrotation Xrotation
				JOINT RightAnkle
				{
					OFFSET -2.54779 -7.00000 0.00000
					CHANNELS 3 Zrotation Yrotation Xrotation
					JOINT RightToe
					{
						OFFSET -0.23067 -0.63376 2.12161
						CHANNELS 3 Zrotation Yrotation Xrotation
						End Site
						{
							OFFSET -0.00000 -0.00000 1.11000
						}
					}
				}
			}
		}
	}
	JOINT lowerback
	{
		OFFSET 0 0 0
		CHANNELS 3 Zrotation Yrotation Xrotation
		JOINT Chest
		{
			OFFSET -0.02108 2.07573 -0.16981
			CHANNELS 3 Zrotation Yrotation Xrotation
			JOINT Chest2
			{
				OFFSET 0.05070 2.08439 -0.03141
				CHANNELS 3 Zrotation Yrotation Xrotation
				JOINT lowerneck
				{
					OFFSET 0 0 0
					CHANNELS 3 Zrotation Yrotation Xrotation
					JOINT Neck
					{
						OFFSET -0.10731 1.60408 0.31370
						CHANNELS 3 Zrotation Yrotation Xrotation
						JOINT Head
						{
							OFFSET 0.08411 1.65679 -0.30822
							CHANNELS 3 Zrotation Yrotation Xrotation
							End Site
							{
								OFFSET 0.03911 1.69149 -0.14146
							}
						}
					}
				}
				JOINT LeftCollar
				{
					OFFSET 0 0 0
					CHANNELS 3 Zrotation Yrotation Xrotation
					JOINT LeftShoulder
					{
						OFFSET 3.52315 0.73219 -0.54694
CHANNELS 3 Zrotation Xrotation Yrotation
						JOINT LeftElbow
						{
OFFSET 0 -5.324620 -0.000000
CHANNELS 3 Zrotation Xrotation Yrotation
							JOINT LeftWrist
							{
OFFSET 0 -3.484020 -0.000000
CHANNELS 3 Zrotation Xrotation Yrotation
								JOINT lhand
								{
									OFFSET 0 0 0
CHANNELS 3 Zrotation Xrotation Yrotation
									JOINT LFingers
									{
OFFSET 0 -0.572480 -0.000000
CHANNELS 3 Zrotation Xrotation Yrotation
										End Site
										{
OFFSET 0 -0.461540 -0.000000
										}
									}
								}
								JOINT LThumb
								{
OFFSET 0 0.000000 0.000000
CHANNELS 3 Zrotation Xrotation Yrotation
									End Site
									{
OFFSET 0 -0.468590 0.468590
									}
								}
							}
						}
					}
				}
				JOINT RightCollar
				{
					OFFSET 0 0 0
					CHANNELS 3 Zrotation Yrotation Xrotation
					JOINT RightShoulder
					{
						OFFSET -3.41766 0.93592 -0.10019
CHANNELS 3 Zrotation Xrotation Yrotation
						JOINT RightElbow
						{
OFFSET 0 -5.335890 -0.000000
CHANNELS 3 Zrotation Xrotation Yrotation
							JOINT RightWrist
							{
OFFSET 0 -3.641340 -0.000000
CHANNELS 3 Zrotation Xrotation Yrotation
								JOINT rhand
								{
									OFFSET 0 0 0
CHANNELS 3 Zrotation Xrotation Yrotation
									JOINT RFingers
									{
OFFSET 0 -0.734810 -0.000000
CHANNELS 3 Zrotation Xrotation Yrotation
										End Site
										{
OFFSET 0 -0.592420 -0.000000
										}
									}
								}
								JOINT RThumb
								{
OFFSET 0 0.000000 0.000000
CHANNELS 3 Zrotation Xrotation Yrotation
									End Site
									{
OFFSET 0 -0.601470 0.601470
									}
								}
							}
						}
					}
				}
			}
		}
	}
}
MOTION
Frames: 8
Frame Time: 0.008333333333333333
-0.699100 17.667100 -2.243400 1.205500 -6.432900 4.702900 0.000000 0.000000 0.000000 -19.253400 -2.769700 -8.762700 2.095200 9.061500 25.988000 0.874100 5.743800 -20.647800 1.272800 -7.150300 -20.161500 0.000000 0.000000 0.000000 11.736000 11.461500 -11.158200 -3.101100 -10.857000 31.799000 -1.180100 5.720500 -19.434500 -0.024700 -1.013700 2.786600 -4.248700 -1.048300 0.203600 1.760100 -1.403600 0.412400 4.193100 -0.722800 0.456400 -13.470400 -8.780900 -21.524100 7.950400 -9.725000 18.895600 3.478200 -4.536900 10.696600 0.000000 -0.000000 0.000000 0.190700 2.024500 -9.711400 14.342000 -23.221500 2.961600 8.891900 11.980700 -26.944700 0.000000 0.000000 0.000000 -7.125000 0.000000 0.000000 -22.803600 55.712000 6.227000 0.000000 -0.000000 0.000000 -3.199500 -2.058000 8.560700 -14.985400 -24.125700 -3.220000 -20.314900 23.769000 -1.222100 0.000000 0.000000 0.000000 7.125000 0.000000 -0.000000 4.864500 28.663200 1.941500
-0.686605 17.666253 -2.195941 1.447209 -6.510358 4.951909 0.000000 0.000000 0.000000 -19.599611 -2.958868 -8.697134 2.056829 8.983458 25.743499 0.882838 5.854709 -20.804888 1.207500 -6.971289 -19.630274 0.000000 0.000000 0.000000 11.388040 11.799462 -11.177577 -3.108100 -10.868088 31.836177 -1.216111 5.725074 -19.736968 -0.028340 -1.086141 2.985924 -4.409288 -1.019639 0.432772 1.799580 -1.378173 0.076178 4.333952 -0.691720 -0.015717 -12.647084 -7.518586 -22.619014 7.063963 -7.902071 19.810520 3.332536 -3.733940 10.934745 0.000000 0.000000 0.000000 -0.294800 2.436852 -8.714662 14.100755 -22.878577 2.867194 7.073623 13.522981 -27.290667 0.000000 0.000000 0.000000 -7.125000 0.000000 0.000000 -24.820635 55.669551 6.800620 0.000000 0.000000 0.000000 -3.234211 -1.223259 8.583019 -15.464247 -24.788840 -3.418210 -20.957952 22.289413 -1.279368 0.000000 0.000000 0.000000 7.125000 0.000000 0.000000 4.363003 28.599189 1.746748
-0.682229 17.661623 -2.156189 1.724841 -6.473688 5.214979 0.000000 0.000000 0.000000 -19.963929 -3.145612 -8.774557 2.042508 8.954050 25.651815 0.878549 6.055492 -20.902414 1.266660 -7.133745 -20.112253 0.000000 0.000000 0.000000 10.993104 11.706439 -11.444756 -3.136050 -10.912037 31.983909 -1.227957 5.977864 -19.822453 -0.031053 -1.136170 3.123529 -4.404332 -0.903603 0.529866 1.740034 -1.227701 0.028723 4.271674 -0.612163 -0.136770 -11.787555 -6.214767 -23.665936 6.124278 -6.001794 20.095711 3.168213 -2.903218 10.956069 0.000000 0.000000 0.000000 -0.409168 2.716817 -9.564754 14.441946 -23.362967 3.001168 5.109792 13.019681 -28.442970 0.000000 0.000000 0.000000 -7.125000 0.000000 0.000000 -27.557154 56.306134 8.070191 0.000000 0.000000 0.000000 -3.238308 -0.997661 8.418142 -15.597673 -24.972117 -3.474386 -22.019033 21.519002 -0.657732 0.000000 0.000000 0.000000 7.125000 0.000000 0.000000 3.558560 29.262039 1.367458
-0.681923 17.648608 -2.109447 2.124110 -6.300365 5.635472 0.000000 0.000000 0.000000 -20.391738 -3.075696 -9.301575 2.070069 9.010515 25.828148 0.889139 5.812930 -20.835458 1.268525 -7.138747 -20.127013 0.000000 0.000000 0.000000 10.414231 11.537071 -12.065963 -3.232909 -11.062899 32.492318 -1.255145 6.379442 -20.030935 -0.031949 -1.153447 3.171149 -4.611258 -0.839385 0.553545 1.732325 -1.145081 -0.033884 4.381839 -0.567073 -0.219394 -11.916675 -5.331477 -24.448234 6.105331 -4.614959 20.313886 3.418440 -2.277610 11.041778 0.000000 0.000000 0.000000 -0.507828 2.797564 -10.878166 14.607145 -23.596010 3.066995 8.522787 11.886841 -26.346118 0.000000 0.000000 0.000000 -7.125000 0.000000 0.000000 -22.781982 55.090863 5.870286 0.000000 0.000000 0.000000 -3.258828 -0.806499 7.750158 -15.602887 -24.979264 -3.476591 -21.764851 21.919786 -1.248476 0.000000 0.000000 0.000000 7.125000 0.000000 0.000000 3.737622 28.627478 1.492665
-0.677282 17.573837 -2.107820 1.829549 -5.725834 5.836192 0.000000 0.000000 0.000000 -19.757843 -2.147957 -11.824700 2.633660 10.076324 29.224834 1.189112 3.374272 -22.067523 1.222255 -7.012153 -19.751354 0.000000 0.000000 0.000000 10.708059 11.286667 -13.232133 -3.609080 -11.620916 34.404166 -1.360641 6.598264 -20.868658 -0.003165 -0.353974 0.972619 -4.021546 -0.740816 1.307474 1.853283 -1.035600 0.095222 4.183927 -0.507892 -0.529774 -11.441060 -4.714846 -25.035911 5.532894 -3.691378 19.964626 3.277161 -1.877976 10.900290 0.000000 0.000000 0.000000 -0.468590 0.776045 -7.986470 13.055849 -21.368938 2.473715 7.124221 10.173399 -25.549384 0.000000 0.000000 0.000000 -7.125000 0.000000 0.000000 -23.642477 54.099601 5.523872 0.000000 0.000000 0.000000 -2.569346 -1.176727 3.908339 -15.800402 -25.249273 -3.560390 -21.913947 20.624270 -1.573617 0.000000 0.000000 0.000000 7.125000 0.000000 0.000000 3.612086 28.277040 1.472506
-0.671097 17.239364 -2.210617 0.336596 -5.239556 4.867916 0.000000 0.000000 0.000000 -17.226377 0.260255 -17.441849 4.624518 12.946347 39.170813 1.740846 -1.337887 -24.573779 1.330993 -7.305438 -20.623622 0.000000 0.000000 0.000000 12.197100 10.498822 -16.548598 -5.242966 -13.650874 41.859267 -1.675252 8.380377 -23.184067 -0.033024 1.171975 -3.222104 -2.523359 -0.563188 4.833304 2.296263 -0.834239 0.714289 3.839818 -0.394316 -1.904420 -10.555003 -4.163390 -26.117476 4.970646 -2.957300 18.965099 3.030680 -1.513210 10.625126 0.000000 0.000000 0.000000 -0.102057 -3.619757 5.181668 10.924237 -18.171959 1.752277 10.541322 11.260978 -25.201673 0.000000 0.000000 0.000000 -7.125000 0.000000 0.000000 -20.110551 54.410877 4.796858 0.000000 0.000000 0.000000 -2.846355 -3.635119 -3.256945 -15.964492 -25.472404 -3.630657 -21.957580 16.868849 -2.562863 0.000000 0.000000 0.000000 7.125000 0.000000 0.000000 3.554458 27.212250 1.538451
-0.754894 16.675424 -2.320634 1.075633 -5.445482 3.664450 0.000000 0.000000 0.000000 -16.265476 2.736677 -24.058041 7.723496 15.910224 51.557501 2.103935 -6.339369 -26.169843 1.815997 -8.471877 -24.156761 0.000000 0.000000 0.000000 10.982824 11.983812 -22.460652 -8.757844 -16.647570 55.246245 -1.952430 9.970945 -25.090831 -0.162640 2.564659 -7.070722 -4.136960 -0.058134 7.380975 1.802946 -0.343566 1.828258 4.229399 -0.154457 -2.209774 -9.565290 -3.818744 -27.070611 5.082508 -2.754000 17.607448 2.925935 -1.297709 10.257760 0.000000 0.000000 0.000000 7.650429 -8.231905 14.072394 11.155347 -18.525961 1.824967 14.286232 8.975708 -27.811568 0.000000 0.000000 0.000000 -7.125000 0.000000 0.000000 -17.922985 57.630209 5.663378 0.000000 0.000000 0.000000 -7.951762 -6.140634 -7.090902 -17.127606 -27.025585 -4.145205 -21.290923 12.308740 -1.431410 0.000000 0.000000 0.000000 7.125000 0.000000 0.000000 4.099217 28.434553 1.656801
-0.876373 16.293069 -2.228093 -0.077360 -3.257701 2.660126 0.000000 0.000000 0.000000 -13.347591 3.863523 -25.679034 9.194872 16.931294 56.761343 2.380181 -11.359329 -27.789082 1.836132 -8.515826 -24.292319 0.000000 0.000000 0.000000 12.300771 10.071185 -23.048055 -10.097673 -17.464102 59.813805 -2.178619 12.379948 -26.665421 -0.305844 3.555042 -9.828078 -3.823100 -0.516148 7.378711 2.059244 -0.921454 1.930844 4.368974 -0.449886 -2.043123 -9.647255 -3.392323 -26.606378 5.429962 -2.288094 18.333338 3.155654 -1.063764 10.410496 0.000000 0.000000 0.000000 25.087185 -10.496298 22.533150 12.045571 -19.872611 2.117961 17.075185 3.211667 -32.173860 0.000000 0.000000 0.000000 -7.125000 0.000000 0.000000 -18.129395 62.426748 7.816064 0.000000 0.000000 0.000000 -21.862325 -7.447590 -16.019365 -18.521267 -28.818992 -4.798181 -22.792195 9.429239 1.108839 0.000000 0.000000 0.000000 7.125000 0.000000 0.000000 3.014310 31.174341 1.020261
